<svg width="10" height="16" viewBox="0 0 10 16" fill="none" xmlns="http://www.w3.org/2000/svg">
<path d="M9.56566 0.448962C9.84385 0.73334 10 1.11803 10 1.51901C10 1.91999 9.84385 2.30468 9.56566 2.58906L4.2782 8.03795L9.56566 13.4109C9.84385 13.6953 10 14.08 10 14.481C10 14.882 9.84385 15.2667 9.56566 15.551C9.42681 15.6933 9.26161 15.8062 9.0796 15.8833C8.89759 15.9603 8.70236 16 8.50518 16C8.30801 16 8.11278 15.9603 7.93077 15.8833C7.74875 15.8062 7.58356 15.6933 7.4447 15.551L1.1117 9.11558C0.971705 8.97448 0.860588 8.80661 0.784759 8.62166C0.708929 8.4367 0.669887 8.23831 0.669887 8.03795C0.669887 7.83758 0.708929 7.63919 0.784758 7.45424C0.860588 7.26928 0.971705 7.10141 1.1117 6.96031L7.4447 0.448963C7.58355 0.306702 7.74875 0.193787 7.93077 0.11673C8.11278 0.0396741 8.308 2.24914e-07 8.50518 1.98704e-07C8.70236 1.72493e-07 8.89759 0.039674 9.0796 0.11673C9.26161 0.193787 9.42681 0.306702 9.56566 0.448962Z" fill="#697687"/>
</svg>
