<svg width="18" height="18" viewBox="0 0 18 18" fill="none" xmlns="http://www.w3.org/2000/svg">
<g id="facebook-f" clip-path="url(#clip0_1_491)">
<path id="Vector" d="M10.4225 10.0415V17.3088H7.21063V10.0415V10.0171H7.18622H4.56122V7.04964H7.18622H7.21063V7.02523V4.7264C7.21063 3.42366 7.59857 2.41547 8.28039 1.73299C8.96225 1.0505 9.94083 0.690918 11.1276 0.690918C11.6971 0.690918 12.28 0.741756 12.7207 0.792645C12.941 0.818083 13.1257 0.84352 13.2553 0.862594C13.3201 0.87213 13.3711 0.880075 13.4058 0.885632L13.4388 0.890984V3.4139H12.1475C11.4941 3.4139 11.0615 3.61685 10.7927 3.92767C10.5244 4.23783 10.4225 4.65172 10.4225 5.06787V7.02523V7.04964H10.447H13.3127L12.8573 10.0171H10.447H10.4225V10.0415Z" fill="#697687" stroke="#697687" stroke-width="0.0488281"/>
</g>
<defs>
<clipPath id="clip0_1_491">
<rect width="16.6667" height="16.6667" fill="white" transform="translate(0.666656 0.666504)"/>
</clipPath>
</defs>
</svg>
