<svg width="18" height="18" viewBox="0 0 18 18" fill="none" xmlns="http://www.w3.org/2000/svg">
<g id="instagram">
<path id="Vector" d="M16.4313 12.1896C16.3728 13.3582 16.1058 14.3934 15.253 15.2463C14.4001 16.1024 13.3649 16.3693 12.1963 16.4246L16.4313 12.1896ZM16.4313 12.1896C16.4997 10.9852 16.4997 7.37842 16.4313 6.17399V12.1896ZM16.407 6.17515L16.407 6.17537C16.4753 7.37888 16.4753 10.9847 16.407 12.1882L16.407 12.1884C16.3485 13.354 16.0826 14.3821 15.2357 15.229L15.2357 15.229C14.3888 16.0791 13.3607 16.3451 12.1952 16.4003L12.1949 16.4003C10.9914 16.4686 7.38233 16.4686 6.17882 16.4003L6.17866 16.4003C5.01312 16.3418 3.98816 16.0759 3.13803 15.229C2.28795 14.3821 2.02199 13.354 1.9668 12.1885L1.96679 12.1882C1.89848 10.9847 1.89848 7.37563 1.96679 6.17212L1.9668 6.17196C2.02524 5.00633 2.28798 3.97821 3.13803 3.13139C3.98815 2.2845 5.01635 2.01854 6.1786 1.96335L6.17882 1.96334C7.38233 1.89503 10.9914 1.89503 12.1949 1.96334L12.1951 1.96335C13.3607 2.02179 14.3888 2.28776 15.2357 3.13461L15.2357 3.13465C16.0858 3.98149 16.3518 5.00963 16.407 6.17515ZM13.4976 14.8913L13.4977 14.8913C14.1452 14.6317 14.6416 14.1352 14.898 13.491C15.0903 13.0079 15.1634 12.194 15.1891 11.3717C15.2074 10.7825 15.2014 10.1863 15.1965 9.70072C15.1945 9.50782 15.1927 9.33239 15.1927 9.1818C15.1927 9.03119 15.1945 8.85579 15.1965 8.66295C15.2014 8.17766 15.2074 7.58197 15.1891 6.99314C15.1634 6.17125 15.0903 5.35735 14.8981 4.87267L14.898 4.87259C14.6384 4.22515 14.1419 3.72867 13.4977 3.47227L13.4976 3.47224C13.0146 3.28166 12.2007 3.20849 11.3784 3.18247C10.7848 3.16368 10.1841 3.16944 9.69651 3.17412C9.50792 3.17593 9.33626 3.17757 9.18851 3.17757C9.03789 3.17757 8.86249 3.17579 8.66966 3.17384C8.18437 3.16892 7.58868 3.16289 6.99984 3.18125C6.17796 3.20687 5.36406 3.28003 4.87938 3.47226L4.87929 3.47229C4.23185 3.73193 3.73537 4.22837 3.47897 4.87265L3.47895 4.87271C3.28837 5.35574 3.2152 6.16962 3.18917 6.9919C3.17038 7.58551 3.17614 8.18626 3.18082 8.6738C3.18263 8.8624 3.18428 9.03405 3.18428 9.1818C3.18428 9.33242 3.1825 9.50782 3.18055 9.70065C3.17563 10.1859 3.16959 10.7816 3.18795 11.3705C3.21357 12.1924 3.28674 13.0063 3.47896 13.4909L3.479 13.491C3.73863 14.1385 4.23507 14.6349 4.87935 14.8913L4.87942 14.8914C5.36244 15.0819 6.17632 15.1551 6.99861 15.1811C7.59222 15.1999 8.19296 15.1942 8.6805 15.1895C8.8691 15.1877 9.04076 15.186 9.18851 15.186C9.33912 15.186 9.51452 15.1878 9.70736 15.1898C10.1926 15.1947 10.7883 15.2007 11.3772 15.1824C12.1991 15.1567 13.013 15.0836 13.4976 14.8913ZM5.47269 9.1818C5.47269 7.12497 7.13168 5.46598 9.18851 5.46598C11.2453 5.46598 12.9043 7.12497 12.9043 9.1818C12.9043 11.2386 11.2453 12.8976 9.18851 12.8976C7.13168 12.8976 5.47269 11.2386 5.47269 9.1818ZM6.73245 9.1818C6.73245 10.5365 7.83715 11.6379 9.18851 11.6379C10.5399 11.6379 11.6446 10.5365 11.6446 9.1818C11.6446 7.82717 10.5431 6.72575 9.18851 6.72575C7.83388 6.72575 6.73245 7.82717 6.73245 9.1818ZM13.9297 5.28857C13.9297 5.76006 13.5501 6.13656 13.0817 6.13656C12.6103 6.13656 12.2338 5.75692 12.2338 5.28857C12.2338 4.82029 12.6135 4.44059 13.0817 4.44059C13.55 4.44059 13.9297 4.82029 13.9297 5.28857Z" fill="#697687" stroke="#697687" stroke-width="0.0488281"/>
</g>
</svg>
