<svg xmlns="http://www.w3.org/2000/svg" width="19" height="19" fill="none" viewBox="0 0 19 19">
  <path fill="#697687" stroke="#697687" stroke-width=".049" d="m7.571 11.189-.008-.018a2.93 2.93 0 0 1-.126-.353 3.62 3.62 0 0 1-.138-.992c0-1.282.744-2.25 1.684-2.25.399 0 .696.15.893.39.197.241.292.57.292.925 0 .397-.126.891-.283 1.42l-.137.45c-.12.393-.245.796-.338 1.188-.214.896.448 1.626 1.333 1.626.805 0 1.519-.424 2.032-1.159.514-.735.826-1.78.826-3.015 0-1.092-.392-2.018-1.063-2.67-.67-.654-1.622-1.035-2.742-1.035-2.595 0-4.115 1.943-4.115 3.952 0 .783.301 1.62.67 2.077h.001l-.019.015c.074.09.085.17.063.263l-.125.507c-.058.236-.114.461-.13.531l1.43-1.852Zm0 0v.002l-.008.033-.029.123-.105.444-.33 1.397-.598 2.546c-.182.781-.114 1.875-.038 2.6a9.146 9.146 0 0 1-5.772-8.5A9.14 9.14 0 0 1 9.833.69a9.14 9.14 0 0 1 9.143 9.142 9.14 9.14 0 0 1-11.819 8.743c.374-.613.92-1.596 1.125-2.383l.327-1.251.17-.65.053-.204.004-.017m-1.265-2.882 1.265 2.882m0 0c.16.27.443.515.795.697.374.194.828.316 1.296.316 2.783 0 4.782-2.559 4.782-5.728 0-3.042-2.486-5.317-5.676-5.317-1.983 0-3.504.665-4.53 1.696C4.478 6.765 3.95 8.158 3.95 9.61c0 .677.18 1.436.504 2.092.324.656.792 1.213 1.37 1.483l.01-.022 3.002.907Z"/>
</svg>
