<svg width="16" height="15" viewBox="0 0 16 15" fill="none" xmlns="http://www.w3.org/2000/svg">
<path d="M15.9115 5.73058C15.7635 5.27782 15.3704 4.94786 14.8971 4.8795L10.9009 4.30153L9.11355 0.697992C8.90195 0.271163 8.46509 0.000976562 7.98676 0.000976562C7.50852 0.000976562 7.07175 0.271246 6.86006 0.698076L5.07309 4.30153L1.07661 4.8795C0.603308 4.94786 0.210009 5.27782 0.0622395 5.73058C-0.0855301 6.18333 0.0377788 6.68027 0.380313 7.01248L3.27212 9.81738L2.58932 13.7784C2.50848 14.2476 2.70224 14.7218 3.08917 15.0015C3.30806 15.1598 3.56733 15.2403 3.82785 15.2403C4.02789 15.2403 4.22869 15.1929 4.41248 15.0966L7.98676 13.2264L11.5614 15.0966C11.9847 15.3179 12.4976 15.2812 12.8847 15.0014C13.2716 14.7217 13.4654 14.2475 13.3845 13.7783L12.7019 9.81722L15.5934 7.0124C15.9359 6.68019 16.0592 6.18325 15.9115 5.73058Z" fill="#FFD751"/>
</svg>
